<svg width="31" height="15" viewBox="0 0 31 15" fill="none" xmlns="http://www.w3.org/2000/svg">
<g clip-path="url(#clip0)">
<path d="M26.436 7.50039L19.6618 14.2746C19.4952 14.4412 19.4952 14.7084 19.6618 14.875C19.8284 15.0417 20.0956 15.0417 20.2622 14.875L27.3382 7.79903C27.5048 7.63242 27.5048 7.36522 27.3382 7.19862L20.2622 0.125741C20.1805 0.0440096 20.0704 5.66502e-07 19.9636 5.75845e-07C19.8567 5.85189e-07 19.7467 0.0408661 19.6649 0.125741C19.4983 0.292346 19.4983 0.559543 19.6649 0.726149L26.436 7.50039Z" fill="white"/>
</g>
<g clip-path="url(#clip1)">
<path d="M4.56397 7.49961L11.3382 0.725363C11.5048 0.558757 11.5048 0.29156 11.3382 0.124954C11.1716 -0.0416514 10.9044 -0.0416514 10.7378 0.124954L3.66179 7.20097C3.49518 7.36758 3.49518 7.63478 3.66179 7.80138L10.7378 14.8743C10.8195 14.956 10.9296 15 11.0364 15C11.1433 15 11.2533 14.9591 11.3351 14.8743C11.5017 14.7077 11.5017 14.4405 11.3351 14.2739L4.56397 7.49961Z" fill="white"/>
</g>
<defs>
<clipPath id="clip0">
<rect width="15" height="15" fill="white" transform="translate(31 15) rotate(180)"/>
</clipPath>
<clipPath id="clip1">
<rect width="15" height="15" fill="white"/>
</clipPath>
</defs>
</svg>
