<svg width="129" height="18" viewBox="0 0 129 18" fill="none" xmlns="http://www.w3.org/2000/svg">
<path d="M8.8373 0H1.1627C0.523313 0 0 0.522821 0 1.1627V16.0511C0 16.6909 0.523313 17.2142 1.1627 17.2142H8.8373C9.47669 17.2142 10 16.6919 10 16.0515V1.1627C10 0.522821 9.47669 0 8.8373 0ZM3.77238 0.838088H6.22762C6.30533 0.838088 6.36829 0.901043 6.36829 0.979245C6.36829 1.05695 6.30533 1.11991 6.22762 1.11991H3.77238C3.69467 1.11991 3.63171 1.05695 3.63171 0.979245C3.63171 0.901043 3.69467 0.838088 3.77238 0.838088ZM5 16.6329C4.67883 16.6329 4.41865 16.3727 4.41865 16.0511C4.41865 15.7294 4.67883 15.4697 5 15.4697C5.32117 15.4697 5.58135 15.7294 5.58135 16.0511C5.58135 16.3727 5.32117 16.6329 5 16.6329ZM9.19093 15.0625H0.809069V1.84389H9.19093V15.0625Z" fill="#005FA3"/>
<path d="M120.488 0C117.053 0 114.258 2.7949 114.258 6.23038C114.258 7.80857 115.252 10.0384 117.214 12.8579C118.647 14.919 120.057 16.5139 120.116 16.5808L120.488 17L120.86 16.5808C120.919 16.5139 122.329 14.919 123.763 12.8579C125.724 10.0384 126.719 7.80857 126.719 6.23038C126.719 2.7949 123.924 0 120.488 0V0ZM122.952 12.2823C121.984 13.6763 121.004 14.876 120.488 15.4881C119.974 14.8777 118.998 13.6825 118.029 12.2903C116.212 9.67793 115.252 7.58237 115.252 6.23038C115.252 3.34301 117.601 0.993889 120.488 0.993889C123.376 0.993889 125.725 3.34301 125.725 6.23038C125.725 7.58095 124.766 9.67365 122.952 12.2823Z" fill="#005FA3"/>
<path d="M120.488 2.30269C118.461 2.30269 116.811 3.95221 116.811 5.9798C116.811 8.0074 118.461 9.65705 120.488 9.65705C122.516 9.65705 124.165 8.0074 124.165 5.9798C124.165 3.95221 122.516 2.30269 120.488 2.30269V2.30269ZM120.488 8.66316C119.009 8.66316 117.805 7.45942 117.805 5.9798C117.805 4.50032 119.009 3.29658 120.488 3.29658C121.968 3.29658 123.172 4.50032 123.172 5.9798C123.172 7.45942 121.968 8.66316 120.488 8.66316Z" fill="#005FA3"/>
<path d="M39.5 0C34.8056 0 31 3.80558 31 8.5C31 13.1944 34.8056 17 39.5 17C44.1944 17 48 13.1944 48 8.5C47.994 3.80809 44.1919 0.00601673 39.5 0ZM39.8647 16.2525V14.7574C39.8647 14.556 39.7014 14.3928 39.5 14.3928C39.2986 14.3928 39.1353 14.556 39.1353 14.7574V16.2525C35.1369 16.0616 31.9384 12.8631 31.7475 8.86465H33.2426C33.444 8.86465 33.6073 8.70138 33.6073 8.5C33.6073 8.29862 33.444 8.13535 33.2426 8.13535H31.7475C31.9384 4.13691 35.1369 0.938428 39.1353 0.747533V2.2426C39.1353 2.44398 39.2986 2.60725 39.5 2.60725C39.7014 2.60725 39.8647 2.44398 39.8647 2.2426V0.747533C43.8631 0.938428 47.0616 4.13691 47.2525 8.13535H45.7574C45.556 8.13535 45.3928 8.29862 45.3928 8.5C45.3928 8.70138 45.556 8.86465 45.7574 8.86465H45.761H47.2561C47.0651 12.8644 43.8645 16.0634 39.8647 16.2525Z" fill="#005FA3"/>
<path d="M43.3471 11.8913L39.8647 8.35049V4.67117C39.8647 4.46979 39.7014 4.30652 39.5 4.30652C39.2986 4.30652 39.1353 4.46979 39.1353 4.67117V8.5C39.1358 8.59567 39.1737 8.68734 39.2411 8.75525L42.8256 12.4018C42.9666 12.5458 43.1976 12.5482 43.3416 12.4072C43.4856 12.2662 43.488 12.0352 43.3471 11.8913Z" fill="#005FA3"/>
<path d="M88.6115 0H71.7316C70.2249 0 69 1.22485 69 2.73165V14.2684C69 15.7751 70.2249 17 71.7316 17H88.6069C90.1137 17 91.3385 15.7751 91.3385 14.2684V2.73627C91.3431 1.22947 90.1183 0 88.6115 0ZM90.0952 14.2684C90.0952 15.0865 89.4296 15.752 88.6115 15.752H71.7316C70.9135 15.752 70.248 15.0865 70.248 14.2684V2.73627C70.248 1.91816 70.9135 1.25258 71.7316 1.25258H88.6069C89.425 1.25258 90.0905 1.91816 90.0905 2.73627V14.2684H90.0952Z" fill="#005FA3"/>
<path d="M83.088 8.35674L88.5513 3.45734C88.8055 3.22624 88.8287 2.83336 88.5975 2.57452C88.3664 2.32031 87.9736 2.2972 87.7147 2.5283L80.1807 9.2904L78.7109 7.97773C78.7063 7.97311 78.7017 7.96849 78.7017 7.96387C78.6693 7.93151 78.637 7.90378 78.6 7.87605L72.619 2.52368C72.3602 2.29258 71.9673 2.31569 71.7362 2.57452C71.5051 2.83336 71.5282 3.22624 71.7871 3.45734L77.3151 8.39834L71.8102 13.552C71.5606 13.7877 71.5467 14.1806 71.7824 14.4348C71.9072 14.5642 72.0736 14.6335 72.24 14.6335C72.3925 14.6335 72.5451 14.5781 72.6652 14.4671L78.2533 9.23956L79.7694 10.5938C79.8896 10.7001 80.0375 10.751 80.1854 10.751C80.3333 10.751 80.4858 10.6955 80.6014 10.5892L82.159 9.19334L87.7147 14.4718C87.8349 14.5873 87.9921 14.6428 88.1446 14.6428C88.311 14.6428 88.4728 14.5781 88.5975 14.4486C88.8333 14.1991 88.824 13.8016 88.5744 13.5658L83.088 8.35674Z" fill="#005FA3"/>
</svg>
