<svg width="106" height="30" viewBox="0 0 106 30" fill="none" xmlns="http://www.w3.org/2000/svg">
<path d="M15.4011 0H2.02629C0.912 0 0 0.911143 0 2.02629V27.9729C0 29.088 0.912 30 2.02629 30H15.4011C16.5154 30 17.4274 29.0897 17.4274 27.9737V2.02629C17.4274 0.911143 16.5154 0 15.4011 0ZM6.57429 1.46057H10.8531C10.9886 1.46057 11.0983 1.57029 11.0983 1.70657C11.0983 1.842 10.9886 1.95171 10.8531 1.95171H6.57429C6.43886 1.95171 6.32914 1.842 6.32914 1.70657C6.32914 1.57029 6.43886 1.46057 6.57429 1.46057ZM8.71371 28.9869C8.154 28.9869 7.70057 28.5334 7.70057 27.9729C7.70057 27.4123 8.154 26.9597 8.71371 26.9597C9.27343 26.9597 9.72686 27.4123 9.72686 27.9729C9.72686 28.5334 9.27343 28.9869 8.71371 28.9869ZM16.0174 26.25H1.41V3.21343H16.0174V26.25Z" fill="white"/>
<path d="M100.608 0H70.8206C68.1615 0 66 2.1615 66 4.82055V25.1794C66 27.8385 68.1615 30 70.8206 30H100.6C103.259 30 105.421 27.8385 105.421 25.1794V4.82871C105.429 2.16966 103.268 0 100.608 0ZM103.227 25.1794C103.227 26.6232 102.052 27.7977 100.608 27.7977H70.8206C69.3768 27.7977 68.2023 26.6232 68.2023 25.1794V4.82871C68.2023 3.38499 69.3768 2.21044 70.8206 2.21044H100.6C102.044 2.21044 103.219 3.38499 103.219 4.82871V25.1794H103.227Z" fill="white"/>
<path d="M90.8612 14.7472L100.502 6.10121C100.951 5.69338 100.992 5.00006 100.584 4.54329C100.176 4.09468 99.4828 4.0539 99.026 4.46173L85.7307 16.3948L83.1369 14.0784C83.1288 14.0702 83.1206 14.0621 83.1206 14.0539C83.0635 13.9968 83.0064 13.9479 82.9412 13.8989L72.3865 4.45357C71.9297 4.04574 71.2364 4.08652 70.8286 4.54329C70.4208 5.00006 70.4616 5.69338 70.9183 6.10121L80.6736 14.8206L70.9591 23.9152C70.5187 24.3312 70.4942 25.0245 70.9102 25.4732C71.1304 25.7015 71.424 25.8239 71.7177 25.8239C71.9868 25.8239 72.256 25.726 72.4681 25.5303L82.3294 16.3051L85.0048 18.695C85.2169 18.8826 85.4779 18.9723 85.7389 18.9723C85.9999 18.9723 86.2691 18.8745 86.473 18.6869L89.2218 16.2236L99.026 25.5384C99.2381 25.7423 99.5154 25.8402 99.7846 25.8402C100.078 25.8402 100.364 25.726 100.584 25.4976C101 25.0572 100.984 24.3557 100.543 23.9397L90.8612 14.7472Z" fill="white"/>
</svg>
